<svg width="128" height="36" viewBox="0 0 128 36" fill="none" xmlns="http://www.w3.org/2000/svg">
<g filter="url(#filter0_f_3001_467)">
<path fill-rule="evenodd" clip-rule="evenodd" d="M5.08913 3.12793C2.63263 3.68889 2.38963 5.35334 4.3377 8.27437C4.56024 8.60807 4.79434 8.93009 4.85792 8.98982C5.03514 9.15648 5.8223 9.78471 6.592 10.3739C7.28598 10.9051 9.64965 12.2281 9.91785 12.2355C9.99611 12.2376 10.3203 12.3783 10.6382 12.5481C10.9561 12.7179 11.2864 12.8573 11.3722 12.858C11.4579 12.8586 11.692 12.937 11.8924 13.0324C12.0927 13.1277 12.6104 13.3258 13.0427 13.4728C15.1064 14.174 14.7429 15.5078 12.6258 15.0023C12.3592 14.9386 11.6729 14.7927 11.1006 14.678C10.5284 14.5633 9.95612 14.4194 9.82895 14.358C8.39325 13.6649 5.49375 12.8776 5.49375 13.1807C5.49375 13.6332 6.97107 16.0046 7.64759 16.6381C8.44041 17.3806 10.5456 18.7574 10.888 18.7574C10.9697 18.7574 11.2591 18.8639 11.531 18.9942C12.3482 19.3856 13.1569 19.6371 13.5957 19.6365C15.041 19.6344 15.8047 20.1387 15.3918 20.8229C15.159 21.2084 12.5367 21.3038 11.4396 20.9666C10.0694 20.5455 9.33994 20.6054 9.63762 21.1147C9.75531 21.3159 12.3274 23.1466 12.495 23.1485C12.5626 23.1491 12.8487 23.2735 13.1309 23.4246C14.2416 24.0197 18.4465 24.3028 20.349 23.9106C22.5618 23.4544 22.6987 23.4213 22.9349 23.2841C23.0621 23.2102 23.2986 23.1497 23.4603 23.1497C24.9757 23.1497 27.9879 21.3508 29.7464 19.3955C31.2597 17.7128 31.3172 17.4317 30.3512 16.4357C30.1503 16.2287 29.9 15.8616 29.7948 15.62C29.5427 15.0406 26.3648 11.5941 25.2623 10.7043C24.1604 9.81508 22.2368 8.40351 21.6924 8.08462C21.4622 7.94972 20.9617 7.64213 20.5802 7.40092C20.1987 7.1596 19.6005 6.8175 19.2508 6.64067C18.9011 6.46372 18.5109 6.26531 18.3837 6.19981C17.967 5.98483 16.2031 5.31619 15.4358 5.08239C15.0225 4.9564 14.5543 4.79614 14.3954 4.72624C14.2364 4.65634 13.8202 4.51503 13.4705 4.41212C11.8147 3.9252 11.4222 3.80661 11.0924 3.69379C10.8971 3.62702 10.5946 3.57243 10.42 3.57243C10.2456 3.57243 9.98918 3.50479 9.85022 3.42221C9.20977 3.04096 6.26634 2.85912 5.08913 3.12793ZM34.5401 17.7236C33.9471 18.3248 33.1157 20.4848 32.6548 22.6213C32.4034 23.7861 32.3477 23.9199 32.0851 23.9882C30.3333 24.4433 29.782 26.2195 31.1497 27.0012C31.4312 27.1621 31.6793 27.3129 31.7009 27.3364C31.7225 27.36 31.6567 27.797 31.5545 28.3077C30.8927 31.6177 31.0807 32.8129 32.2631 32.8129C32.9645 32.8129 33.2911 32.359 33.4536 31.1582C33.847 28.2535 34.1766 26.9166 34.4406 27.1545C34.5396 27.2438 34.6231 27.2444 34.7041 27.1564C34.7693 27.0857 35.1766 27.0446 35.6096 27.0653L36.3968 27.1028L36.7044 28.4205C37.4926 31.7961 38.0157 32.9384 38.774 32.9384C39.3687 32.9384 39.565 32.3109 39.3668 31.0435C39.2977 30.6018 39.1898 29.9014 39.1269 29.4873C39.064 29.0731 38.9287 28.3513 38.826 27.8831C38.6449 27.057 38.6462 27.0235 38.8727 26.7536C39.6475 25.8297 39.4715 24.7208 38.4725 24.2318C37.9405 23.9714 37.8745 23.7185 37.8498 21.8458C37.8424 21.2861 37.8115 20.941 37.7808 21.0791C37.5961 21.9127 37.4635 21.5536 37.303 19.7853C37.1961 18.6069 36.932 18.0044 36.5225 18.0044C36.443 18.0044 36.2235 17.8632 36.0346 17.6907C35.56 17.2572 34.9876 17.2698 34.5401 17.7236ZM84.5416 17.5958C83.9443 17.9979 83.4013 19.2989 82.673 22.0725L82.1815 23.9444L81.6656 24.1076C80.0653 24.6141 79.7894 27.1656 81.3349 27.1656C81.6244 27.1656 81.6236 27.4136 81.3291 28.797C81.2044 29.3837 81.0681 30.3541 81.0264 30.9533L80.9505 32.0429L81.3052 32.4279C82.211 33.4111 83.0606 32.7894 83.352 30.9305C83.8782 27.5712 84.0327 26.9438 84.2788 27.1656C84.3845 27.2608 84.4547 27.2627 84.5065 27.1717C84.5979 27.0112 86.1467 26.9947 86.237 27.1533C86.2725 27.2154 86.4807 28.0389 86.6998 28.9831C87.4535 32.2317 88.44 33.7254 89.1276 32.6594C89.4104 32.2213 89.1996 30.1815 88.6081 27.6316C88.4779 27.0705 88.4855 27.0348 88.8327 26.5776C89.4647 25.7454 89.194 24.5825 88.2772 24.1916C87.8074 23.9913 87.6891 23.5508 87.6891 22.0018C87.6891 21.6557 87.6399 21.5183 87.5157 21.5183C87.4204 21.5183 87.3423 21.4641 87.3423 21.3977C87.3423 19.7129 86.9682 18.2168 86.5073 18.0586C86.3624 18.0089 86.0832 17.8352 85.8864 17.6726C85.4673 17.3262 84.9831 17.2986 84.5416 17.5958ZM58.2886 17.5843C58.2453 17.6313 58.2098 18.1263 58.2097 18.6842C58.2094 21.4451 57.7684 24.3664 56.9614 26.952C56.5595 28.2397 56.477 28.1348 56.1417 25.9106C56.0014 24.9788 55.8134 23.8494 55.7243 23.4007C54.8898 19.2048 54.7009 18.6512 53.9147 18.0985C52.5672 17.1513 52.1353 18.4917 52.7697 21.6513C53.3278 24.4304 53.7979 27.5873 53.8829 29.125C53.945 30.2489 54.0053 30.5692 54.2228 30.9305C54.3683 31.172 54.5245 31.5109 54.57 31.6834C55.363 34.6938 59.5677 29.6459 60.6852 24.3419C61.5619 20.1811 61.216 17.8504 59.6968 17.6815L58.9396 17.5973L58.8594 19.549C58.7448 22.3392 58.4359 24.2222 57.7233 26.4754C57.3514 27.6514 56.8237 28.723 56.6886 28.5764C56.611 28.4921 56.6478 28.29 56.8004 27.9649C57.9502 25.5148 59.2343 16.5576 58.2886 17.5843ZM98.8451 17.8297C97.7641 17.9227 95.8835 18.0142 94.6658 18.033C93.4481 18.0517 92.5117 18.1087 92.5849 18.1594C92.6581 18.2101 92.988 18.2524 93.3181 18.2535C93.6481 18.2545 93.9555 18.321 94.0013 18.4014C94.0639 18.5112 93.654 18.5271 92.3456 18.4656C89.6164 18.3374 89.2406 18.9801 90.9002 20.9376C91.2901 21.3977 91.8662 21.5571 93.4116 21.6329L94.9145 21.7065L94.8986 22.1458C94.7154 27.2346 94.718 30.9541 94.905 31.4858C95.3924 32.8711 96.647 32.8859 96.885 31.5092C96.9874 30.9165 97.1666 30.9272 97.1769 31.5266C97.1835 31.9041 97.2047 31.9475 97.2844 31.7462C97.3391 31.6081 97.3874 29.2221 97.3919 26.444C97.3963 23.6659 97.4332 21.3928 97.4736 21.3928C97.7761 21.3928 100.531 20.8504 100.792 20.7395C100.997 20.6524 101.187 20.4301 101.296 20.1491C101.393 19.9014 101.579 19.4639 101.711 19.1772C101.94 18.6757 101.942 18.6428 101.747 18.3199C101.635 18.1353 101.573 17.904 101.607 17.806C101.683 17.5927 101.589 17.5935 98.8451 17.8297ZM41.3892 18.0529C41.1983 18.1431 40.971 18.3103 40.8837 18.4245C40.7965 18.5385 40.6592 18.6319 40.5786 18.6319C40.4981 18.6319 40.3159 18.7342 40.1737 18.859L39.9152 19.0863L40.1199 20.114C40.2431 20.7333 40.3818 21.1418 40.4688 21.1418C40.6608 21.1418 40.7029 21.2723 41.2181 23.4635C41.4616 24.4988 41.8208 26.0202 42.0164 26.8442C42.4336 28.6028 42.4121 28.4205 42.2025 28.4205C41.9653 28.4205 41.8726 28.166 41.5629 26.6636C41.4135 25.9389 41.2501 25.2943 41.1998 25.2312C41.0861 25.0883 41.183 25.8491 41.4109 26.8879C41.62 27.8403 41.5664 28.0871 41.1852 27.9297C39.3143 27.1576 39.1983 29.6908 41.0612 30.6358C41.9904 31.1072 42.1809 31.2554 42.3189 31.614C42.6722 32.5318 43.6751 32.831 44.4797 32.2586C44.7203 32.0874 44.8077 32.0879 45.3229 32.2633C51.365 34.3196 53.6568 29.7041 49.3552 24.1425C45.7769 19.516 42.9172 17.3299 41.3892 18.0529ZM65.451 18.1883C64.9454 18.3839 64.3973 18.9026 64.1476 19.4216C64.0549 19.6144 63.8625 19.8202 63.7202 19.8789C62.1486 20.5276 61.4542 27.5649 62.6822 30.3999C64.1232 33.7265 67.909 33.1718 69.0848 29.4615C69.9638 26.6882 69.1665 19.523 67.9248 19.0356C67.8271 18.9973 67.5602 18.7496 67.3315 18.4852C66.8626 17.9431 66.3101 17.8557 65.451 18.1883ZM71.1856 18.1342C70.7139 18.34 70.6534 18.7122 70.795 20.537C71.1355 24.9255 71.2887 26.6558 71.392 27.2828C71.4538 27.6578 71.5044 28.9223 71.5044 30.0925C71.5044 32.7751 71.5391 32.8179 73.3541 32.372C74.7178 32.0371 76.858 31.8011 78.3149 31.8252C80.1206 31.8551 80.4444 31.6068 80.0084 30.5269C79.917 30.3002 79.815 29.9729 79.782 29.7997C79.6394 29.0525 77.5737 28.7875 75.3194 29.2271C74.1888 29.4475 74.2862 29.7334 74.0322 25.4518C73.91 23.3919 73.7392 21.1983 73.6526 20.5771L73.495 19.4476L73.4824 20.3021C73.4689 21.2135 73.298 21.3479 73.1781 20.5413C73.0988 20.0072 72.8966 18.9203 72.8189 18.6106C72.725 18.2361 71.6623 17.9262 71.1856 18.1342ZM103.996 18.221C102.15 19.0114 101.832 28.8634 103.633 29.484C103.767 29.5301 104.08 29.8927 104.328 30.2898C106.696 34.0754 110.58 32.8111 111.731 27.8795C112.465 24.7396 112.239 19.169 111.349 18.4557L111.021 18.1927L110.767 18.5378C110.61 18.7501 110.4 18.8829 110.221 18.8829C109.476 18.8829 109.424 19.1009 109.417 22.2448C109.404 28.6265 108.787 30.3123 106.944 29.0016C106.567 28.7335 105.891 26.189 105.723 24.4047L105.622 23.338L105.66 24.7654C105.681 25.5595 105.654 26.1177 105.601 26.0236C105.173 25.2724 105.142 20.8985 105.562 20.5298C106.629 19.5923 105.316 17.6563 103.996 18.221ZM114.272 18.3533C113.722 18.6515 113.578 19.1611 113.614 20.6914C113.635 21.5976 113.603 21.9496 113.498 21.9883C113.39 22.0279 113.351 21.7473 113.342 20.8699C113.329 19.5612 113.216 18.914 113.066 19.2966C112.923 19.6631 113.096 28.9524 113.274 30.4523C113.47 32.1032 113.62 32.3892 114.354 32.5087C115.341 32.6692 115.36 32.5937 115.29 28.7603C115.224 25.1326 115.285 24.9029 115.783 26.919C117.158 32.4934 117.146 32.4618 117.776 32.4122L118.267 32.3737L118.511 31.4952C118.929 29.9944 119.296 28.1296 119.277 27.6048C119.259 27.1082 119.858 24.233 120.257 22.8987C120.455 22.2347 120.694 22.0633 120.694 22.585C120.694 22.7231 120.746 22.9207 120.809 23.0242C120.872 23.1278 121.033 23.7772 121.168 24.4674C121.303 25.1577 121.495 26.1459 121.596 26.6636C121.878 28.116 122.14 30.1961 122.14 30.9862C122.14 31.8998 122.255 32.1173 122.936 32.4922C124.299 33.2422 125.016 31.6837 124.521 29.048C123.963 26.0826 123.726 24.7563 123.464 23.1579C123.057 20.6663 122.675 19.5025 121.995 18.6753C121.406 17.9584 119.668 18.3912 119.543 19.2859C118.995 23.2224 117.65 28.7914 117.463 27.8961C116.968 25.5252 116.129 20.4414 116.128 19.8116C116.128 19.4652 115.626 18.5141 115.355 18.348C115.045 18.1578 114.629 18.1598 114.272 18.3533ZM71.5545 18.7397C71.5081 18.922 71.4807 20.3418 71.4935 21.8948C71.5289 26.1877 71.3142 25.2987 70.9601 19.6859C70.8997 18.7287 70.9115 18.6575 71.1612 18.4676C71.5017 18.2086 71.6614 18.319 71.5545 18.7397ZM115.646 19.981C115.704 20.1018 115.814 20.5959 115.891 21.0791C115.968 21.5622 116.131 22.479 116.253 23.1162C116.58 24.8249 116.36 25.1303 115.98 23.495C115.239 20.3059 115.098 18.8279 115.646 19.981ZM66.2692 20.2947C66.805 21.0525 67.2524 23.7108 67.2672 26.2244C67.2886 29.8689 66.4048 31.5786 64.9281 30.7496C64.122 30.2971 63.814 29.3748 64.5178 29.5209C64.8536 29.5905 64.853 29.5974 64.6275 28.1068C64.3166 26.0531 64.466 23.4229 64.9766 21.9575C65.5054 20.4404 65.9593 19.8565 66.2692 20.2947ZM92.0595 20.8183C92.8967 21.0133 93.0307 21.1006 92.6449 21.2003C92.2934 21.291 91.2475 21.0019 91.1855 20.7967C91.1277 20.6057 91.1488 20.6063 92.0595 20.8183ZM35.6503 21.9889C35.978 24.3007 35.9836 24.2737 35.1718 24.2773C34.5781 24.2798 34.5577 24.1449 34.9224 22.6284C35.3681 20.7751 35.466 20.689 35.6503 21.9889ZM85.6174 22.868C85.756 24.218 85.7318 24.274 85.0081 24.2773C84.4275 24.2799 84.4227 24.2511 84.7587 22.7636C85.2296 20.6784 85.3945 20.6984 85.6174 22.868ZM65.3864 21.717C65.392 21.8632 65.4194 21.8929 65.4563 21.7929C65.4897 21.7023 65.4855 21.594 65.4471 21.5523C65.4088 21.5106 65.3815 21.5847 65.3864 21.717ZM44.7382 22.6957C47.2588 24.6077 50.5381 29.0445 50.0519 29.8848C49.6118 30.6455 46.7985 30.5744 44.9967 29.7571C44.5069 29.5349 44.5429 29.6548 44.1104 26.8118C43.918 25.5475 43.6585 23.9708 43.5339 23.3081C43.2379 21.735 43.3778 21.6637 44.7382 22.6957ZM40.869 24.1537C40.869 24.2457 40.9037 24.2833 40.9461 24.2374C40.9884 24.1913 40.9884 24.116 40.9461 24.07C40.9037 24.0241 40.869 24.0617 40.869 24.1537ZM34.2471 28.1798C34.141 28.6228 34.0294 29.1829 33.9991 29.4245C33.8449 30.6562 33.8189 31.1814 33.9122 31.1814C33.969 31.1814 34.0488 30.834 34.0897 30.4091C34.1306 29.9843 34.2466 29.1945 34.3476 28.654C34.5766 27.4269 34.5065 27.0963 34.2471 28.1798ZM84.0756 28.3968C83.9104 29.2024 83.669 31.6386 83.8122 31.056C83.9173 30.6283 84.3547 27.52 84.3158 27.4777C84.2925 27.4525 84.1845 27.866 84.0756 28.3968ZM75.8396 32.6142L74.4523 32.758L76.7953 32.7604C78.3826 32.7622 79.1253 32.7204 79.0982 32.631C79.0426 32.4486 77.5135 32.4407 75.8396 32.6142ZM73.7009 32.8756C73.7009 32.9101 73.7269 32.9384 73.7587 32.9384C73.7905 32.9384 73.8165 32.9101 73.8165 32.8756C73.8165 32.8411 73.7905 32.8129 73.7587 32.8129C73.7269 32.8129 73.7009 32.8411 73.7009 32.8756Z" fill="#D1C12B"/>
</g>
<defs>
<filter id="filter0_f_3001_467" x="0.0406494" y="0" width="127.637" height="36" filterUnits="userSpaceOnUse" color-interpolation-filters="sRGB">
<feFlood flood-opacity="0" result="BackgroundImageFix"/>
<feBlend mode="normal" in="SourceGraphic" in2="BackgroundImageFix" result="shape"/>
<feGaussianBlur stdDeviation="1.5" result="effect1_foregroundBlur_3001_467"/>
</filter>
</defs>
</svg>
