<svg width="58" height="12" viewBox="0 0 58 12" fill="none" xmlns="http://www.w3.org/2000/svg">
<g filter="url(#filter0_f_3020_1780)">
<path d="M55.3535 5.64645C55.5488 5.84171 55.5488 6.1583 55.3535 6.35356L52.1716 9.53554C51.9763 9.7308 51.6597 9.7308 51.4645 9.53554C51.2692 9.34028 51.2692 9.02369 51.4645 8.82843L54.2929 6L51.4645 3.17158C51.2692 2.97632 51.2692 2.65973 51.4645 2.46447C51.6597 2.26921 51.9763 2.26921 52.1716 2.46447L55.3535 5.64645ZM2 5.5L55 5.5L55 6.5L2 6.5L2 5.5Z" fill="#D1C12B"/>
</g>
<path d="M57.3535 5.64645C57.5488 5.84171 57.5488 6.1583 57.3535 6.35356L54.1716 9.53554C53.9763 9.7308 53.6597 9.7308 53.4645 9.53554C53.2692 9.34028 53.2692 9.02369 53.4645 8.82843L56.2929 6L53.4645 3.17158C53.2692 2.97632 53.2692 2.65973 53.4645 2.46447C53.6597 2.26921 53.9763 2.26921 54.1716 2.46447L57.3535 5.64645ZM4 5.5L57 5.5L57 6.5L4 6.5L4 5.5Z" fill="#A332CA"/>
<path d="M56.3535 5.64645C56.5488 5.84171 56.5488 6.1583 56.3535 6.35356L53.1716 9.53554C52.9763 9.7308 52.6597 9.7308 52.4645 9.53554C52.2692 9.34028 52.2692 9.02369 52.4645 8.82843L55.2929 6L52.4645 3.17158C52.2692 2.97632 52.2692 2.65973 52.4645 2.46447C52.6597 2.26921 52.9763 2.26921 53.1716 2.46447L56.3535 5.64645ZM3 5.5L56 5.5L56 6.5L3 6.5L3 5.5Z" fill="white"/>
<defs>
<filter id="filter0_f_3020_1780" x="0" y="0.317871" width="57.5" height="11.3643" filterUnits="userSpaceOnUse" color-interpolation-filters="sRGB">
<feFlood flood-opacity="0" result="BackgroundImageFix"/>
<feBlend mode="normal" in="SourceGraphic" in2="BackgroundImageFix" result="shape"/>
<feGaussianBlur stdDeviation="1" result="effect1_foregroundBlur_3020_1780"/>
</filter>
</defs>
</svg>
